<svg width="14" height="15" viewBox="0 0 14 15" fill="none" xmlns="http://www.w3.org/2000/svg">
<path fill-rule="evenodd" clip-rule="evenodd" d="M5.49613 0.5L1.20616 1.62359L0.0238873 5.93774L1.50254 7.45591L0 8.94901L1.11267 13.282L5.38407 14.4755L6.8869 12.9821L8.36556 14.5L12.6555 13.3764L13.8375 9.06196L12.3592 7.54438L13.8617 6.05128L12.749 1.71796L8.47703 0.524477L6.97479 2.01758L5.49613 0.5ZM2.86352 2.45345L5.12338 1.86128L6.1116 2.87575L4.6704 4.30781L2.86352 2.45345ZM7.82441 2.88932L8.82856 1.89165L11.0787 2.52039L9.24231 4.34496L7.82441 2.88932ZM1.37779 5.58356L2.00034 3.31132L3.80663 5.16568L2.36572 6.59774L1.37779 5.58327V5.58356ZM10.0913 5.217L11.9277 3.39183L12.5134 5.67439L11.5095 6.67235L10.0913 5.217ZM5.51973 5.17954L6.96093 3.74749L8.37853 5.20314L6.93763 6.63519L5.51973 5.17954ZM3.21534 7.46948L4.65625 6.03742L6.07474 7.49307L4.63324 8.92513L3.21534 7.46948ZM7.78725 7.50693L9.22815 6.07487L10.6461 7.53052L9.20485 8.96258L7.78725 7.50693ZM1.34771 9.32561L2.35216 8.32735L3.76976 9.7833L1.93398 11.6076L1.34771 9.32561ZM5.48257 9.79686L6.92377 8.36481L8.34167 9.82046L6.90076 11.2525L5.48257 9.79686ZM10.0542 9.83461L11.4954 8.40255L12.4836 9.41673L11.8614 11.689L10.0542 9.83461ZM2.78301 12.4799L4.61909 10.6547L6.03758 12.1104L5.03313 13.1086L2.78301 12.4799ZM7.75009 12.1242L9.19099 10.6922L10.9976 12.5468L8.73802 13.1387L7.75009 12.1242Z" fill="#5E80FA"/>
</svg>
